<svg width="50" height="52" viewBox="0 0 50 52" fill="none" xmlns="http://www.w3.org/2000/svg">
<g id="logos:partytown-icon" clip-path="url(#clip0_1012_17638)">
<path id="Vector" d="M4.39326 13.3802C4.70013 13.385 5.00491 13.3292 5.28983 13.2159C5.57476 13.1026 5.83415 12.9341 6.05288 12.7202C6.27162 12.5063 6.44534 12.2514 6.56391 11.9701C6.68249 11.6889 6.74356 11.3871 6.74356 11.0822C6.74356 10.7773 6.68249 10.4754 6.56391 10.1942C6.44534 9.91301 6.27162 9.65804 6.05288 9.44418C5.83415 9.23031 5.57476 9.06181 5.28983 8.9485C5.00491 8.8352 4.70013 8.77934 4.39326 8.7842C3.12939 8.80321 2.11475 9.82652 2.11475 11.0823C2.11475 12.338 3.12939 13.3612 4.39326 13.3802ZM39.8216 11.4323C40.1279 11.4362 40.4319 11.3797 40.7161 11.2659C41.0002 11.1522 41.2588 10.9835 41.4768 10.7697C41.6948 10.5559 41.8678 10.3012 41.9859 10.0204C42.1041 9.73956 42.1649 9.43826 42.1648 9.13393C42.1648 8.8296 42.1039 8.52831 41.9857 8.24754C41.8675 7.96678 41.6944 7.71212 41.4764 7.49836C41.2583 7.2846 40.9997 7.11599 40.7155 7.00231C40.4314 6.88863 40.1273 6.83214 39.821 6.83614C38.5571 6.85515 37.5427 7.87866 37.5427 9.13442C37.5429 10.3902 38.5577 11.4135 39.8216 11.4323Z" fill="#FF37AD"/>
<path id="Vector_2" d="M41.6996 40.9591C42.0065 40.9639 42.3112 40.908 42.5962 40.7947C42.8811 40.6814 43.1404 40.5128 43.3591 40.2989C43.5779 40.085 43.7515 39.83 43.8701 39.5488C43.9886 39.2676 44.0496 38.9657 44.0496 38.6608C44.0496 38.3559 43.9885 38.0541 43.8699 37.7729C43.7512 37.4917 43.5775 37.2367 43.3587 37.0229C43.14 36.8091 42.8806 36.6406 42.5956 36.5273C42.3107 36.4141 42.0059 36.3582 41.699 36.3631C40.4352 36.3821 39.4207 37.4057 39.4209 38.6614C39.4209 39.9172 40.4357 40.9403 41.6996 40.9591ZM13.842 4.59637C14.1483 4.60033 14.4524 4.54381 14.7365 4.43009C15.0207 4.31638 15.2792 4.14773 15.4973 3.93394C15.7153 3.72015 15.8884 3.46547 16.0065 3.18469C16.1247 2.90391 16.1855 2.60261 16.1855 2.29828C16.1855 1.99396 16.1247 1.69266 16.0065 1.41188C15.8884 1.13109 15.7153 0.876417 15.4973 0.662627C15.2792 0.448838 15.0207 0.280192 14.7365 0.166476C14.4524 0.0527603 14.1483 -0.00376035 13.842 0.000194045C12.5779 0.019403 11.5635 1.04252 11.5635 2.29828C11.5635 3.55404 12.5781 4.57736 13.842 4.59637Z" fill="#FCC954"/>
<path id="Vector_3" d="M27.5277 20.5583C27.2533 20.5583 26.9826 20.4962 26.736 20.3767C26.4894 20.2572 26.2734 20.0835 26.1045 19.8688C25.9356 19.654 25.8181 19.4038 25.761 19.1372C25.7039 18.8706 25.7087 18.5946 25.775 18.3301C25.8472 18.0426 25.9062 17.7538 25.9506 17.4657C25.4085 17.688 24.8311 17.8131 24.2451 17.8351C23.1945 17.8749 22.2539 17.6989 21.4521 17.3132C20.6664 16.9393 20.0121 16.3391 19.5744 15.5908C18.7121 14.1061 18.7865 12.153 19.7627 10.6149C20.6933 9.14648 22.2697 8.35174 23.9787 8.48154C25.2951 8.5838 26.4488 9.07353 27.3728 9.91387C27.541 9.44238 27.7023 8.93732 27.8558 8.39986C28.7998 5.09009 29.1115 1.76656 29.114 1.73299C29.1354 1.4984 29.2031 1.27029 29.3132 1.06169C29.4233 0.853089 29.5737 0.668093 29.7559 0.517272C29.938 0.366452 30.1482 0.252763 30.3746 0.182703C30.601 0.112643 30.839 0.0875845 31.0752 0.10896C31.552 0.152183 31.9921 0.381746 32.2987 0.747187C32.6052 1.11263 32.7531 1.58404 32.7099 2.0578C32.6969 2.20662 32.3646 5.75018 31.3295 9.37951C30.8068 11.2121 30.1892 12.7607 29.4896 13.997C29.5412 14.2726 29.5824 14.5555 29.6129 14.8453C29.7586 16.2445 29.6426 17.7507 29.2781 19.2003C29.18 19.5879 28.9546 19.9318 28.6375 20.1777C28.3205 20.4237 27.93 20.5577 27.5277 20.5583ZM23.5974 12.0544C23.4107 12.0544 23.0818 12.1087 22.817 12.5259C22.5635 12.9256 22.5138 13.4714 22.7021 13.7956C22.9525 14.227 23.6892 14.2646 24.1064 14.2489C24.5799 14.231 25.065 13.9361 25.5396 13.3986C25.4604 13.2343 25.367 13.077 25.2603 12.9287C24.8683 12.3879 24.3722 12.1115 23.6982 12.0591C23.6728 12.0575 23.6386 12.0544 23.5974 12.0544Z" fill="#2890E9"/>
<path id="Vector_4" d="M22.3362 25.4712C14.8473 19.6068 7.01976 17.066 4.85297 19.7966C4.6491 20.0563 4.49926 20.3537 4.41215 20.6715C4.39885 20.71 4.38866 20.7496 4.38168 20.7898V20.7945C4.35258 20.9171 4.3309 21.0409 4.31664 21.1664L0.0767959 45.8272C-0.602306 49.7878 3.34437 52.9588 7.1016 51.4721L30.094 42.3706C30.4995 42.2103 31.4973 41.598 31.7704 41.26C31.8426 41.1897 31.9104 41.115 31.9729 41.0363C34.1393 38.3053 29.8245 31.3371 22.3362 25.4706V25.4712Z" fill="#F0A420"/>
<path id="Vector_5" d="M31.9703 41.0365C34.1383 38.3046 29.825 31.335 22.3361 25.4703C14.8473 19.6053 7.01875 17.0657 4.85098 19.7976C2.68301 22.5296 6.9961 29.4991 14.485 35.3639C21.9738 41.2288 29.8023 43.7685 31.9703 41.0365Z" fill="#FCC954"/>
<path id="Vector_6" d="M30.6625 39.4438C32.4414 37.2016 28.5227 31.1853 21.9092 26.006C15.2957 20.8264 8.4918 18.4455 6.71309 20.6871C4.93379 22.9293 8.85254 28.9456 15.466 34.1248C22.0793 39.3044 28.8834 41.686 30.6625 39.4438Z" fill="#F0A420"/>
<path id="Vector_7" d="M14.8549 48.4052C12.0566 48.4188 9.77598 47.0274 7.01152 44.8628C3.79473 42.3426 1.6584 39.3264 1.48984 37.6083L0.578125 42.9105C1 44.4236 2.43809 46.3415 4.52383 47.9749C6.25879 49.3339 8.00898 50.267 9.82363 50.3964L14.8549 48.4045V48.4052ZM12.0557 38.7814C6.6957 34.5831 3.21367 29.7654 3.31152 27.0098L2.42305 32.1768C2.4916 34.6381 5.38691 38.6155 9.50547 41.841C13.1957 44.7313 17.0412 46.7655 19.9859 46.3741L24.9846 44.395C20.9572 44.6715 16.708 42.426 12.0557 38.7814Z" fill="#2E6AC9"/>
<path id="Vector_8" d="M23.1516 28.1472C23.4579 28.1511 23.7619 28.0946 24.0461 27.9809C24.3302 27.8672 24.5888 27.6985 24.8068 27.4847C25.0249 27.2709 25.198 27.0163 25.3161 26.7355C25.4343 26.4547 25.4951 26.1534 25.4951 25.8491C25.4951 25.5447 25.4343 25.2434 25.3161 24.9627C25.198 24.6819 25.0249 24.4272 24.8068 24.2134C24.5888 23.9996 24.3302 23.831 24.0461 23.7173C23.7619 23.6035 23.4579 23.547 23.1516 23.551C21.8877 23.57 20.873 24.5933 20.873 25.8491C20.873 27.1048 21.8877 28.1281 23.1516 28.1472Z" fill="#2890E9"/>
<path id="Vector_9" d="M35.6268 23.6708L35.6437 23.652C35.6648 23.6295 35.7039 23.5879 35.7602 23.5315C35.9354 23.3584 36.1178 23.1927 36.307 23.0348C37.0023 22.4565 37.7621 21.9598 38.5715 21.5543C40.5496 20.5599 43.4949 19.7485 47.3576 20.6332C48.5184 20.8991 49.676 20.18 49.9437 19.0271C50.2113 17.8741 49.4875 16.7239 48.327 16.4581C43.3266 15.3128 39.351 16.3599 36.6234 17.7321C35.516 18.2873 34.4767 18.9676 33.5264 19.7595C33.2411 19.9975 32.9664 20.2478 32.7031 20.5096C32.601 20.6117 32.5013 20.7161 32.4043 20.823L32.3809 20.8492L32.3727 20.8585L32.3687 20.8628L32.3674 20.8643C32.3668 20.8653 32.3656 20.8663 34.0004 22.2633L32.3656 20.8663C31.6084 21.7631 31.7156 23.0976 32.6064 23.8636C33.4973 24.6297 34.842 24.5439 35.6268 23.6708ZM14.2631 8.38919C14.1022 8.1354 13.8926 7.91563 13.6461 7.74249C13.3996 7.56934 13.1211 7.44622 12.8266 7.38018C12.5322 7.31413 12.2275 7.30647 11.93 7.35762C11.6325 7.40877 11.3482 7.51773 11.0932 7.67826C10.838 7.83823 10.617 8.04658 10.4429 8.29142C10.2688 8.53626 10.145 8.81277 10.0785 9.10517C10.0121 9.39757 10.0042 9.70011 10.0555 9.99552C10.1068 10.2909 10.2161 10.5734 10.3773 10.8268C10.4607 10.9593 12.1699 13.7101 12.5211 17.4774C12.8785 21.305 11.7465 24.8233 9.15137 27.9782C10.0252 29.0815 11.0768 30.2282 12.2779 31.3751C13.94 29.467 15.1906 27.4165 16.0123 25.2471C17.023 22.578 17.3807 19.7479 17.0758 16.8363C16.59 12.204 14.5615 8.85971 14.2631 8.38919Z" fill="#FF37AD"/>
<path id="Vector_10" d="M43.0164 30.3829C44.1887 30.6842 45.0172 31.0127 45.3752 31.1656C45.7936 31.4207 46.2828 31.5372 46.7722 31.4981C47.2616 31.4591 47.7258 31.2665 48.0979 30.9483C48.3444 30.7367 48.5432 30.4759 48.6814 30.1829C48.8196 29.8899 48.8941 29.5712 48.9 29.2476C48.9083 28.76 48.7602 28.2824 48.4772 27.8838C48.1942 27.4853 47.791 27.1865 47.3258 27.0306C46.2285 26.5465 42.0709 24.9118 36.575 25.2023C32.8756 25.3977 29.3182 26.4156 26.0021 28.2307C22.8623 29.9498 19.9467 32.3853 17.2998 35.4923C18.5626 36.3851 19.8781 37.202 21.2393 37.9384C25.7084 32.8781 30.8648 30.1351 36.6104 29.7727C38.7647 29.6426 40.9261 29.8485 43.0164 30.3829Z" fill="#2890E9"/>
</g>
<defs>
<clipPath id="clip0_1012_17638">
<rect width="50" height="52" fill="white"/>
</clipPath>
</defs>
</svg>
